# xmcd
#
# Track frame offsets:
#	150
#	6305
#	20524
#	44500
#	60696
#	88212
#	110168
#	136037
#	157272
#
# Disc length: 2770 seconds
#
# Revision: 0
# Processed by: cddbd v1.5.1PL0 Copyright (c) Steve Scherf et al.
# Submitted via: EasyCDDAExtractor 7.1.2.1
#
DISCID=7c0ad009
DTITLE=Whitesnake - Live In Saarbrucken - CD 1
DYEAR=1979
DGENRE=Hard Rock
TTITLE0=Intro
TTITLE1=Come On
TTITLE2=Might Just Take Your Life
TTITLE3=The Time Is Right For Love
TTITLE4=Ain't No Love In The Heart Of The City
TTITLE5=Trouble
TTITLE6=Micky Moody Slide Guitar Solo
TTITLE7=Steal Away
TTITLE8=Mistreated
EXTD=
EXTT0=
EXTT1=
EXTT2=
EXTT3=
EXTT4=
EXTT5=
EXTT6=
EXTT7=
EXTT8=
PLAYORDER=
